<svg width="113" height="41" viewBox="0 0 113 41" fill="none" xmlns="http://www.w3.org/2000/svg">
<path d="M43.7893 11.0907L43.6488 10.6847C43.5219 10.3366 43.4142 9.98186 43.326 9.6221C43.3171 9.51855 43.2813 9.41907 43.2222 9.33339C43.1631 9.2477 43.0826 9.17874 42.9887 9.13325C42.0465 8.65737 41.3042 7.86474 40.8938 6.8961C40.701 6.51358 40.5954 6.09345 40.5846 5.66567V4.85471C40.5701 4.04223 40.8329 3.24886 41.3301 2.6041C41.593 2.18062 41.9386 1.81392 42.3466 1.52571C42.7545 1.23751 43.2164 1.03366 43.705 0.926246C43.9018 0.702532 44.2391 0.926246 44.4359 0.717032C45.1579 0.652698 45.8855 0.738405 46.5724 0.96871C46.9368 1.06814 47.2742 1.24939 47.5563 1.50003L47.0919 1.37367C46.9314 1.32322 46.7671 1.28581 46.6005 1.26182H45.6447C45.1231 1.23075 44.6056 1.36746 44.1683 1.65332C43.7292 1.88489 43.3405 2.20059 43.0246 2.58223C42.7087 2.96386 42.4718 3.4039 42.3275 3.877C42.2338 4.25089 42.1963 4.63721 42.2151 5.0225C42.1972 5.49908 42.2821 5.97394 42.464 6.41519C42.6459 6.85643 42.9207 7.25384 43.2698 7.58071C43.7302 8.05179 44.3068 8.39461 44.9419 8.575C44.9419 8.575 45.0252 8.64439 45.0679 8.64439C45.3209 8.64439 45.5604 8.74175 45.7853 8.74175C46.3059 8.749 46.8223 8.64853 47.3033 8.44864C47.7568 8.25952 48.1823 8.01005 48.5683 7.70707C48.7224 7.59521 48.8203 7.39946 48.9754 7.25964C48.9151 7.57449 48.7568 7.86242 48.5257 8.0851C48.1451 8.54872 47.6647 8.92142 47.1201 9.17571C46.6291 9.46252 46.0733 9.62107 45.5042 9.6366C45.2491 9.65732 44.995 9.69357 44.7441 9.74846C44.9502 10.2891 45.1293 10.8401 45.2793 11.3984C45.4334 11.8872 45.6166 12.3626 45.7426 12.7966C45.8696 13.2295 46.0653 13.7329 46.1643 14.1948C46.2694 14.6194 46.3964 15.0399 46.5443 15.4532C46.6703 15.8716 46.7973 16.2921 46.9379 16.696C47.0784 17.102 47.2606 17.6199 47.3731 18.0942C47.4855 18.5707 47.6823 19.0316 47.8093 19.4925C48.0342 20.3459 48.3008 21.1703 48.5673 22.0092C48.6943 22.4007 48.8203 22.8067 48.9338 23.2117L49.4814 25.0574C49.6918 25.7699 49.8885 26.4556 50.1416 27.1826C50.2712 27.5432 50.4837 27.8686 50.7621 28.1331C51.0404 28.3976 51.377 28.5938 51.745 28.7062C52.555 29.0096 53.4275 29.1153 54.2875 29.0138C54.8635 28.9677 55.4334 28.8647 55.9888 28.7062C56.651 28.4989 57.2874 28.2174 57.8858 27.8672C58.7055 27.4281 59.4351 26.84 60.0369 26.1335C60.4841 25.6367 60.8193 25.0505 61.0198 24.4142C61.1176 24.9942 61.0489 25.5907 60.823 26.1335C60.4385 27.0703 59.8251 27.8969 59.0384 28.5384C58.5226 28.9936 57.9625 29.3964 57.3663 29.7409H59.6985C60.3024 29.7409 60.8792 29.6435 61.4696 29.601C61.9901 29.5772 62.5066 29.5109 63.0157 29.4053C63.5363 29.3079 64.0569 29.2095 64.5764 29.0842L65.982 28.6927C66.4308 28.5664 66.8805 28.441 67.3022 28.3012C67.7239 28.1614 68.1175 27.9656 68.5256 27.8113C68.9327 27.658 69.2565 27.4757 69.622 27.308C69.9864 27.1402 70.3248 26.9589 70.6621 26.7632C71.2937 26.3776 71.9034 25.9575 72.4883 25.5048H72.5727C72.657 25.5048 72.5727 25.6446 72.5727 25.6726C72.1435 26.1292 71.673 26.5456 71.1671 26.9165C70.8859 27.0987 70.6892 27.3929 70.3945 27.5596C70.0988 27.7274 69.4533 28.2453 68.9889 28.5384C68.258 28.9579 67.5 29.3359 66.74 29.7129C66.4026 29.8672 66.0518 29.9646 65.6999 30.0909C65.349 30.2162 64.8857 30.4265 64.4629 30.5518C64.0423 30.6782 63.5217 30.818 63.0573 30.9288L62.1588 31.1536C61.8631 31.223 61.5549 31.2509 61.2592 31.3483C60.9635 31.4467 60.7949 31.3483 60.5419 31.4601C60.2889 31.572 59.6985 31.4601 59.2914 31.601C58.4699 31.689 57.6432 31.7211 56.8176 31.6984C56.6489 31.6984 56.4667 31.8382 56.3116 31.7957C55.5488 31.6863 54.7768 31.6537 54.0074 31.6984C53.7826 31.6984 53.5858 31.5451 53.3463 31.5865C53.2323 31.6166 53.1132 31.6222 52.9968 31.6029C52.8805 31.5836 52.7696 31.5399 52.6716 31.4746C52.3211 31.4927 51.97 31.455 51.6315 31.3628C51.182 31.3359 50.7379 31.2513 50.3102 31.1111C50.1134 31.1111 49.9312 31.1111 49.748 31.0272C48.9619 30.761 48.1467 30.5943 47.3876 30.2867C46.9379 30.1313 46.4964 29.9552 46.0653 29.7554C45.7145 29.5731 45.3074 29.4612 44.9555 29.2789C44.6046 29.0977 43.9434 28.7196 43.3958 28.469C43.4551 28.528 43.5072 28.5933 43.5499 28.6647C43.705 28.8885 43.8456 29.1256 44.0142 29.3359C44.3953 29.7885 44.7982 30.2225 45.222 30.6357C45.8436 31.2416 46.4964 31.8164 47.1763 32.355C47.8908 32.8949 48.632 33.3989 49.3971 33.8651C49.7792 34.1116 50.178 34.3311 50.5913 34.5227C51.3202 34.8728 52.0771 35.1628 52.8549 35.3896L53.7815 35.6827C54.0772 35.7811 54.401 35.7946 54.7102 35.921C54.9986 35.9986 55.2964 36.0411 55.5952 36.0463L56.1429 36.1581C56.3116 36.1581 56.5083 36.1581 56.6635 36.242C56.6876 36.2532 56.7139 36.259 56.7405 36.259C56.7672 36.259 56.7934 36.2532 56.8176 36.242C57.4641 36.242 58.0972 36.3819 58.7292 36.3674C59.3622 36.3539 60.0504 36.3674 60.7105 36.3674C60.95 36.3674 61.1603 36.1996 61.4279 36.242C61.659 36.2907 61.8985 36.2907 62.1307 36.242C62.6784 36.1167 63.2552 36.1447 63.7893 36.0318C64.7382 35.8726 65.6768 35.6581 66.6005 35.3896C66.6624 35.3717 66.7277 35.3686 66.7911 35.3806C66.8544 35.3927 66.914 35.4196 66.9649 35.459L64.9408 36.242C64.5988 36.2545 64.2635 36.3403 63.958 36.4937C63.6217 36.5351 63.2937 36.6294 62.9876 36.7734C62.4816 36.7734 62.0464 37.053 61.582 37.0116C61.4279 37.0116 61.2873 37.0944 61.1322 37.1089C60.9781 37.1224 60.8094 37.1089 60.6824 37.2208L59.1935 37.3181L58.041 37.43H56.8884C56.6208 37.43 56.3397 37.3471 56.0586 37.3326C55.7878 37.3606 55.5151 37.3606 55.2433 37.3326C55.0038 37.2622 54.7519 37.3326 54.527 37.2342C54.3089 37.1846 54.0882 37.1472 53.8658 37.1224C53.3921 37.0333 52.9225 36.9152 52.4603 36.7734C51.9126 36.6201 51.3785 36.4378 50.7881 36.2555C50.7716 36.3295 50.7716 36.4062 50.7881 36.4802C50.9401 36.8427 51.1442 37.1814 51.392 37.4859C51.9117 38.0509 52.5502 38.495 53.262 38.7868C53.8013 38.9867 54.35 39.1596 54.907 39.3046C55.412 39.4579 55.9607 39.4434 56.4667 39.6392C57.2955 39.5698 58.0972 39.8215 58.926 39.7376C59.1935 39.7376 59.4465 39.6537 59.7131 39.6392C59.9838 39.6599 60.2566 39.6599 60.5283 39.6392C61.0062 39.5418 61.4977 39.5418 61.9339 39.4155C62.5255 39.3237 63.1085 39.1834 63.6768 38.996C63.7342 38.9706 63.7963 38.9575 63.8591 38.9575C63.9218 38.9575 63.9839 38.9706 64.0413 38.996L62.9876 39.4724C62.2605 39.838 61.4841 40.0968 60.6824 40.2409C60.1483 40.3238 59.6006 40.3807 59.0811 40.4791C58.4741 40.5434 57.8629 40.5661 57.2538 40.5485H55.3985C55.1871 40.5485 55.0184 40.3942 54.7946 40.4222C54.5697 40.4501 54.3864 40.3248 54.1761 40.3393C53.9698 40.3256 53.7666 40.2831 53.5722 40.213L53.01 40.1146C52.8093 40.0784 52.6116 40.0271 52.4186 39.9613C51.9356 39.7583 51.4661 39.5248 51.013 39.2622C50.5725 38.9267 50.1634 38.5523 49.7907 38.1436C49.2739 37.5542 48.9331 36.8327 48.8068 36.0608C48.8068 35.8226 48.7079 35.5844 48.6662 35.3337C48.2419 35.1122 47.829 34.8696 47.4293 34.6066C47.0649 34.327 46.6422 34.1592 46.3048 33.8506C45.9675 33.544 45.5739 33.3482 45.222 33.0686C44.8711 32.789 44.59 32.5373 44.2953 32.2576C43.9997 31.978 43.4801 31.4322 43.0584 31.0417C42.5091 30.5069 42.0062 29.9269 41.555 29.3079C41.1324 28.7323 40.7336 28.1397 40.3597 27.5317C39.9807 26.9165 39.5309 25.9522 39.1228 25.1557C38.8325 24.4984 38.6066 23.8148 38.4481 23.1144C38.3357 22.6669 38.0264 22.2754 38.0691 21.799C37.8442 21.6322 38.0691 21.3806 37.915 21.1983C37.7599 21.017 37.915 20.7788 37.915 20.5831C37.915 20.3873 37.915 20.1916 37.8161 20.0238C37.7893 19.9771 37.7751 19.9243 37.7751 19.8705C37.7751 19.8167 37.7893 19.7639 37.8161 19.7172C37.9567 19.5494 37.9004 19.3671 37.9004 19.1994C37.9377 18.5475 38.0605 17.9034 38.2659 17.2833C38.5064 16.5842 38.8281 15.913 39.2217 15.2844C39.4768 14.9105 39.7527 14.5511 40.0505 14.2082C40.242 13.9576 40.4482 13.7204 40.6689 13.4957C41.5054 12.6971 42.4132 11.9761 43.3812 11.3414C43.5103 11.2471 43.6467 11.1632 43.7893 11.0907ZM49.0598 28.3426C49.0598 28.3426 48.9754 28.2732 48.9619 28.2308C48.8911 27.7699 48.6662 27.3359 48.5673 26.8326C48.4694 26.3292 48.3008 25.9242 48.1612 25.4344C48.0196 24.9455 47.9072 24.5954 47.7666 24.1915C47.586 23.7868 47.4677 23.3573 47.4158 22.9176C47.1483 22.2994 46.9364 21.6589 46.7827 21.0036C46.6005 20.3459 46.3892 19.6747 46.1924 19.0181C45.9956 18.3604 45.7145 17.4376 45.4615 16.6546C45.2085 15.8716 45.0679 15.4801 44.9138 14.8794C44.7596 14.506 44.6465 14.117 44.5765 13.7194L44.3786 13.5226C43.9726 13.8312 43.578 14.0964 43.2271 14.4185C42.5946 14.9631 42.0369 15.5882 41.5685 16.2776C41.2956 16.7234 41.0605 17.1911 40.8657 17.6758C40.6762 18.1657 40.5305 18.6701 40.4305 19.1859C40.3916 19.8773 40.4293 20.571 40.5429 21.2542C40.6814 21.6685 40.8407 22.0735 41.0209 22.4712C41.176 22.8285 41.3748 23.1672 41.6112 23.4779C41.9548 23.9864 42.3556 24.4556 42.8054 24.8761C43.1261 25.1941 43.4739 25.4841 43.8456 25.742C44.3932 26.0786 44.8711 26.5115 45.4334 26.8046C46.3048 27.281 47.2044 27.6995 48.104 28.12C48.4163 28.2184 48.736 28.2929 49.0598 28.3426ZM19.0812 7.88935H22.3838C22.8055 8.5315 23.3677 9.09078 23.7894 9.735C24.2111 10.3771 24.5494 10.6154 24.9003 11.1332C25.2512 11.65 25.6166 12.0136 25.954 12.5314C26.2913 13.0482 26.713 13.3973 27.0639 13.9296C27.4158 14.4599 27.8094 14.7955 28.1186 15.3268C28.2727 15.565 28.483 15.7597 28.6527 15.9835C29.2285 16.6826 29.8053 17.3817 30.353 18.1087C30.7049 18.5707 31.1265 18.9756 31.4639 19.507C31.8012 20.0383 32.1948 20.3873 32.5176 20.9052C32.8403 21.423 33.3193 21.8135 33.6701 22.3034C34.021 22.7922 34.3021 23.0719 34.5697 23.5048C34.7405 23.7296 34.9237 23.944 35.1174 24.149C35.6796 24.8616 36.2564 25.5472 36.8041 26.2743C37.1695 26.7497 37.6058 27.1681 37.9567 27.6725C38.3075 28.1749 38.6595 28.5249 38.9822 28.9858C39.305 29.4477 39.7277 29.8807 40.0932 30.384C40.4576 30.8874 40.7814 31.2509 41.1614 31.7822C40.6929 31.8257 40.2233 31.8257 39.7558 31.7822H38.1951L34.1897 26.7766H7.27528L3.25634 31.3773H1.00739C0.764149 31.3967 0.519735 31.3967 0.276489 31.3773C0.276489 31.2934 0.360824 31.223 0.403513 31.167C0.975118 30.5352 1.50508 29.8672 1.99131 29.1681C2.16206 28.9392 2.34531 28.7196 2.53897 28.5104C2.96064 28.0071 3.38232 27.4902 3.77588 26.9589C4.16945 26.4276 4.53594 26.092 4.88682 25.6311C5.2377 25.1692 5.63126 24.7508 5.94049 24.2329C6.12686 23.9781 6.32885 23.7358 6.54437 23.5059C6.9244 23.016 7.34608 22.5685 7.68342 22.1076C7.84499 21.8757 8.02351 21.6558 8.21754 21.45C8.65275 20.9476 9.06089 20.4298 9.45446 19.8985C9.84802 19.3671 10.2135 19.0316 10.5644 18.5707C10.9152 18.1087 11.2953 17.6903 11.618 17.1725C11.9408 16.6546 12.3354 16.347 12.6446 15.8996C12.9539 15.4532 13.3755 15.0192 13.7129 14.5014C14.0502 13.9845 14.4719 13.621 14.8092 13.1031C15.1466 12.5863 15.5682 12.2373 15.8775 11.7049C16.0628 11.5299 16.2596 11.3673 16.4668 11.2161C17.029 10.5035 17.6194 9.81785 18.1681 9.07732C18.3784 8.79768 18.6314 8.546 18.8563 8.27982C19.0812 8.01467 18.9833 8.01468 19.0812 7.88935ZM20.6846 9.60864L8.94845 24.2744H32.503L20.6835 9.60864H20.6846ZM90.7037 7.90282H93.8939C94.2489 8.25289 94.5686 8.63817 94.8497 9.04935C95.0121 9.28032 95.1901 9.49989 95.3838 9.706C95.819 10.2094 96.2271 10.7272 96.6207 11.2585C97.0132 11.7899 97.3933 12.1254 97.7306 12.6567C98.0679 13.1881 98.4615 13.5371 98.7989 14.055C99.1362 14.5718 99.5016 14.8794 99.8244 15.3134C100.148 15.7463 100.542 16.1937 100.879 16.7116C101.216 17.2284 101.638 17.5919 101.989 18.1098C102.34 18.6266 102.733 18.9756 103.043 19.508C103.201 19.7369 103.38 19.9523 103.577 20.1501C104.013 20.6535 104.42 21.1703 104.828 21.7016C105.235 22.233 105.587 22.582 105.925 23.0999C106.262 23.6177 106.669 23.9802 106.993 24.4981C107.154 24.7301 107.332 24.9496 107.526 25.1547C107.948 25.6581 108.369 26.1614 108.763 26.7072C109.156 27.252 109.409 27.4902 109.719 27.8817C110.239 28.5384 110.745 29.2095 111.279 29.8527C111.814 30.4959 112.024 30.7476 112.389 31.2509C112.516 31.3907 112.614 31.5585 112.755 31.7398H109.944C108.538 30.1324 107.274 28.4131 105.882 26.7352H78.8697C77.4641 28.3292 76.2407 30.035 74.8643 31.7118H71.8699L73.1214 30.1044C73.4868 29.657 73.8804 29.224 74.2312 28.7062C74.5832 28.1883 74.9622 27.8258 75.286 27.308C75.6087 26.7901 76.0439 26.4411 76.3959 25.9097C76.7467 25.3784 77.3652 24.7777 77.8014 24.149C77.9816 23.9067 78.1731 23.6726 78.3772 23.4499C78.8978 22.8347 79.4174 22.2195 79.9234 21.5898C80.4294 20.9611 80.7667 20.5271 81.1884 19.9958C81.677 19.3818 82.1457 18.7525 82.594 18.1087C83.0157 17.4935 83.3665 17.2284 83.7185 16.7105C84.0693 16.1927 84.4348 15.8302 84.7721 15.3123C85.1095 14.7955 85.5311 14.432 85.8831 13.9141C86.2339 13.3973 86.6275 13.0482 86.9367 12.5159C87.1231 12.2621 87.3241 12.0187 87.5406 11.7899C87.7759 11.5982 87.9789 11.3714 88.1455 11.1187C88.258 10.8525 88.5391 10.7407 88.637 10.461C88.7359 10.1814 88.9462 10.084 89.1013 9.88828C89.5511 9.20264 90.1415 8.5605 90.7037 7.90282ZM92.3613 9.6366C92.2207 9.77642 92.0666 9.90175 91.9396 10.0561C91.4532 10.6764 90.9848 11.3105 90.535 11.9576C90.0988 12.5863 89.6771 13.0058 89.2554 13.5516C88.8337 14.0964 88.2299 14.7955 87.7239 15.4107C87.5198 15.6282 87.3272 15.8571 87.147 16.0953C86.9479 16.4037 86.7273 16.6979 86.4869 16.9757C86.2339 17.2553 86.0236 17.5774 85.7841 17.8716C85.5457 18.1647 84.997 18.7385 84.6742 19.2698C84.3504 19.8001 83.985 20.1367 83.6477 20.5831C83.3103 21.0305 82.7908 21.6457 82.3826 22.1781C81.9755 22.7084 81.3008 23.4779 80.7667 24.1211C80.7285 24.1783 80.6958 24.239 80.6688 24.3023H104.126C103.839 24.0118 103.572 23.704 103.324 23.3805C103.183 23.1703 102.986 23.016 102.86 22.8067C102.551 22.3169 102.143 21.9119 101.807 21.4085C101.469 20.9052 101.033 20.5416 100.696 20.0103C100.359 19.479 99.9369 19.0036 99.5298 18.5427C99.3462 18.3537 99.1813 18.1477 99.0373 17.9275C98.7281 17.4376 98.321 17.0326 97.969 16.5293C97.6182 16.0259 97.21 15.6489 96.8727 15.1311C96.5364 14.6132 96.0585 14.0829 95.6222 13.5796C95.4252 13.3815 95.2465 13.1662 95.0881 12.9364C94.7789 12.4465 94.3718 12.0415 94.0344 11.5382C93.6971 11.0348 93.2889 10.6433 92.9235 10.14C92.6986 10.14 92.5299 9.88828 92.3613 9.6366Z" fill="white"/>
</svg>
